<svg xmlns="http://www.w3.org/2000/svg" preserveAspectRatio="xMidYMid" width="142" height="36" viewBox="0 0 142 36"><path d="M139.754 29.616L128.456 8.218l-9.584 17.978-.965-1.787 9.95-18.413H129l12.71 23.62h-1.956zm-37.007-22.94l.368-.68h1.14l12.71 23.62h-1.873l-12.345-22.94zM90.43 29.617l.334-.767 10.032-18.563.9 1.71-9.39 17.62H90.43zm-21.354-.41L90.4 17.976 72.297 8.354l.91-1.43 19.406 10.46v1.134L69.076 31.15v-1.944zM48.82 36.008L71.816 0h1.997l-23.05 36.008h-1.945zM24.31 17.383L47.85 4.697V6.64L26.524 17.977l21.324 11.23v1.942L24.31 18.516v-1.134zm.353 12.235l-9.425-17.68.916-1.683 10.384 19.363h-1.875zm-22.705 0h-.08.08zm-1.956 0l12.71-23.62h1.142l.368.68L1.877 29.62H.002z" fill="#ccd8db" fill-rule="evenodd"/></svg>